<svg width="20" height="20" viewBox="0 0 20 20" fill="none" xmlns="http://www.w3.org/2000/svg">
<g id="IMAGE" clip-path="url(#clip0_1_1275)">
<path id="Vector" d="M4.20167 12.6375C4.20057 13.1944 3.97905 13.7281 3.58552 14.1221C3.19201 14.5161 2.65852 14.7382 2.10167 14.74C1.54453 14.7387 1.01061 14.5168 0.616728 14.1227C0.222852 13.7287 0.00110036 13.1947 0 12.6375C0.00154122 12.0807 0.223514 11.5472 0.617367 11.1537C1.01122 10.7602 1.54489 10.5386 2.10167 10.5375H4.20167V12.6375ZM5.26084 12.6375C5.26237 12.0808 5.48422 11.5475 5.87791 11.154C6.27158 10.7605 6.80504 10.5388 7.36167 10.5375C7.91829 10.5388 8.45175 10.7605 8.84542 11.154C9.23908 11.5475 9.461 12.0808 9.4625 12.6375V17.8984C9.46117 18.4552 9.23942 18.9888 8.84575 19.3827C8.45208 19.7765 7.91852 19.9985 7.36167 20C6.80482 19.9985 6.27124 19.7765 5.87756 19.3827C5.48388 18.9888 5.26215 18.4552 5.26084 17.8984V12.6375ZM7.36167 4.20167C6.80511 4.20012 6.27177 3.97841 5.87814 3.58494C5.48452 3.19147 5.26259 2.65823 5.26084 2.10167C5.26215 1.54482 5.48388 1.01114 5.87756 0.617316C6.27124 0.223487 6.80482 0.00154034 7.36167 0C7.91852 0.00154034 8.45208 0.223487 8.84575 0.617316C9.23942 1.01114 9.46117 1.54482 9.4625 2.10167V4.20167H7.36167ZM7.36167 5.26084C7.91837 5.26237 8.45183 5.4842 8.8455 5.87786C9.23917 6.27151 9.461 6.80496 9.4625 7.36167C9.461 7.91837 9.23917 8.45183 8.8455 8.8455C8.45183 9.23917 7.91837 9.461 7.36167 9.4625H2.10167C1.54482 9.46117 1.01114 9.23942 0.617316 8.84575C0.223487 8.45208 0.00154034 7.91852 0 7.36167C0.00154034 6.80482 0.223487 6.27124 0.617316 5.87756C1.01114 5.48388 1.54482 5.26215 2.10167 5.26084H7.36167ZM15.7967 7.36167C15.7982 6.80482 16.0202 6.27124 16.414 5.87756C16.8078 5.48388 17.3415 5.26215 17.8984 5.26084C18.4552 5.26215 18.9888 5.48388 19.3827 5.87756C19.7765 6.27124 19.9985 6.80482 20 7.36167C19.9985 7.91852 19.7765 8.45208 19.3827 8.84575C18.9888 9.23942 18.4552 9.46117 17.8984 9.4625H15.7967V7.36167ZM14.74 7.36167C14.7385 7.91866 14.5164 8.45233 14.1224 8.84608C13.7284 9.23975 13.1945 9.46142 12.6375 9.4625C12.0808 9.461 11.5475 9.23908 11.154 8.84542C10.7605 8.45175 10.5388 7.91829 10.5375 7.36167V2.10167C10.5386 1.54489 10.7602 1.01122 11.1537 0.617367C11.5472 0.223514 12.0807 0.00154122 12.6375 0C13.1947 0.00110036 13.7287 0.222852 14.1227 0.616728C14.5168 1.01061 14.7387 1.54453 14.74 2.10167V7.36167ZM12.6375 15.7967C13.1947 15.7978 13.7287 16.0195 14.1227 16.4134C14.5168 16.8072 14.7387 17.3412 14.74 17.8984C14.7387 18.4554 14.5168 18.9894 14.1227 19.3832C13.7287 19.7772 13.1947 19.9988 12.6375 20C12.0807 19.9985 11.5472 19.7765 11.1537 19.3827C10.7602 18.9887 10.5386 18.4552 10.5375 17.8984V15.7967H12.6375ZM12.6375 14.74C12.0806 14.7385 11.5469 14.5164 11.1534 14.1224C10.7598 13.7282 10.5384 13.1944 10.5375 12.6375C10.5388 12.0809 10.7605 11.5476 11.154 11.154C11.5476 10.7605 12.0809 10.5388 12.6375 10.5375H17.8984C18.4552 10.5386 18.9887 10.7602 19.3827 11.1537C19.7765 11.5472 19.9985 12.0807 20 12.6375C19.9988 13.1947 19.7772 13.7287 19.3832 14.1227C18.9894 14.5168 18.4554 14.7387 17.8984 14.74H12.6375Z" fill="white"/>
</g>
<defs>
<clipPath id="clip0_1_1275">
<rect width="20" height="20" fill="white"/>
</clipPath>
</defs>
</svg>
