<svg width="20" height="20" viewBox="0 0 20 20" fill="none" xmlns="http://www.w3.org/2000/svg">
<g id="IMAGE" clip-path="url(#clip0_1_1279)">
<g id="Group">
<path id="Vector" d="M19.9616 3.80766C19.2242 4.13183 18.4367 4.35266 17.6075 4.45349C18.4525 3.94433 19.1025 3.14183 19.41 2.18433C18.6175 2.64683 17.7392 2.98349 16.8042 3.17099C16.0575 2.37183 14.9933 1.87183 13.8116 1.87183C11.5475 1.87183 9.71158 3.70766 9.71158 5.96933C9.71158 6.29433 9.74917 6.60683 9.8175 6.90599C6.40916 6.74516 3.38833 5.10849 1.36667 2.63433C1.01083 3.23599 0.811667 3.93516 0.811667 4.69683C0.811667 6.12183 1.53667 7.37433 2.635 8.11016C1.96249 8.08849 1.33 7.90349 0.778333 7.59683V7.64766C0.778333 9.63517 2.18916 11.2927 4.06667 11.6702C3.72249 11.7627 3.35916 11.8127 2.98667 11.8127C2.725 11.8127 2.47416 11.7877 2.22333 11.741C2.74916 13.3685 4.26083 14.5552 6.06 14.5885C4.66 15.6877 2.88583 16.3427 0.975 16.3427C0.65 16.3427 0.325833 16.3235 0 16.2868C1.82416 17.4485 3.97333 18.1277 6.29749 18.1277C13.8425 18.1277 17.9633 11.881 17.9633 6.47266C17.9633 6.29849 17.9633 6.12266 17.9508 5.94766C18.7516 5.37349 19.4508 4.64767 20.0008 3.82433L19.9616 3.80766Z" fill="white"/>
</g>
</g>
<defs>
<clipPath id="clip0_1_1279">
<rect width="20" height="20" fill="white"/>
</clipPath>
</defs>
</svg>
